<?xml version="1.0" encoding="utf-8"?>
<!DOCTYPE svg PUBLIC "-//W3C//DTD SVG 1.1//EN" "http://www.w3.org/Graphics/SVG/1.1/DTD/svg11.dtd">
<svg version="1.1" xmlns="http://www.w3.org/2000/svg"
     width="700.000000pt" height="700.000000pt" viewBox="0 0 700.000000 700.000000"
     preserveAspectRatio="xMidYMid meet">
  <g transform="translate(0.000000,700.000000) scale(0.100000,-0.100000)"
     fill="#000000" stroke="none">
    <path d="M5430 5710 c-16 -32 -38 -74 -48 -92 -47 -83 -122 -218 -152 -273
-48 -89 -247 -452 -283 -515 -17 -30 -40 -73 -52 -95 -12 -22 -59 -107 -105
-190 -45 -82 -95 -172 -110 -200 -310 -564 -415 -755 -430 -780 -10 -16 -37
-66 -60 -110 -24 -44 -62 -114 -85 -155 -23 -41 -59 -106 -80 -145 -21 -38
-60 -110 -88 -160 -28 -49 -64 -115 -80 -145 -132 -242 -292 -533 -330 -600
-11 -19 -37 -66 -57 -104 -30 -56 -44 -72 -72 -82 -106 -37 -185 -98 -243
-189 -51 -79 -67 -138 -67 -241 1 -168 94 -315 247 -389 63 -32 98 -41 171
-49 55 -6 152 16 219 48 154 76 248 227 247 395 -1 72 -1 70 -25 153 l-17 56
76 194 c141 360 217 552 310 788 137 349 395 1008 449 1145 25 66 50 129 55
140 5 11 45 112 89 225 169 435 272 696 286 727 8 17 15 34 15 37 0 3 48 126
106 273 132 336 154 393 149 393 -3 0 -18 -27 -35 -60z"/>
    <path d="M3347 5004 c-1 -1 -47 -5 -102 -9 -55 -3 -113 -8 -130 -10 -16 -2
-55 -6 -85 -10 -30 -3 -62 -8 -70 -10 -8 -2 -36 -6 -62 -10 -126 -15 -529
-119 -623 -160 -16 -7 -68 -28 -115 -46 -220 -84 -497 -233 -711 -381 -383
-264 -723 -616 -959 -993 -34 -55 -70 -111 -80 -125 -23 -35 -151 -291 -185
-370 -15 -36 -33 -78 -41 -95 -16 -38 -102 -290 -109 -319 -3 -12 -16 -66 -30
-121 -42 -166 -42 -162 2 -174 21 -6 368 -105 772 -221 404 -115 736 -209 737
-207 2 1 6 18 9 37 6 33 33 164 39 185 1 6 8 30 15 55 45 169 154 394 272 564
72 103 228 275 314 346 148 122 243 184 410 266 107 52 293 124 364 139 285
63 465 78 681 59 150 -14 149 -14 175 31 13 22 37 65 53 95 16 30 138 253 272
495 133 242 258 469 278 505 19 36 66 120 103 187 37 68 65 124 61 127 -16 8
-276 78 -346 92 -51 10 -184 34 -211 38 -196 29 -315 38 -528 40 -92 1 -169 1
-170 0z"/>
    <path d="M5275 4463 c-10 -32 -22 -62 -25 -68 -16 -24 -59 -155 -51 -155 9 0
261 -167 271 -179 3 -3 23 -19 45 -36 148 -109 453 -405 523 -507 9 -13 19
-25 22 -28 35 -26 222 -304 300 -445 90 -161 230 -477 230 -518 0 -8 3 -17 7
-21 4 -3 8 -12 9 -19 1 -7 9 -31 17 -54 l16 -42 -32 -10 c-18 -5 -75 -21 -127
-36 -52 -14 -117 -33 -145 -41 -27 -8 -189 -54 -360 -103 l-310 -89 -31 92
c-138 398 -382 743 -714 1005 l-104 82 -57 -143 -57 -143 21 -18 c12 -10 42
-35 67 -55 61 -50 176 -166 225 -227 22 -27 46 -56 53 -64 29 -30 117 -168
162 -255 100 -188 162 -366 194 -550 9 -49 17 -90 19 -92 2 -2 334 91 737 207
404 115 752 214 773 220 43 11 43 7 13 134 -38 158 -121 414 -180 551 -40 91
-170 348 -214 421 -195 325 -447 623 -742 877 -135 116 -495 366 -528 366 -4
0 -16 -26 -27 -57z"/>
  </g>
</svg>
