<?xml version="1.0" encoding="utf-8"?>
<!DOCTYPE svg PUBLIC "-//W3C//DTD SVG 1.1//EN" "http://www.w3.org/Graphics/SVG/1.1/DTD/svg11.dtd">
<svg version="1.1" id="Pressurizer_Logo" xmlns="http://www.w3.org/2000/svg" x="0px" y="0px"
	 width="256px" height="256px" viewBox="0 0 512 512" enable-background="new 0 0 256 256" xml:space="preserve">
<path fill="#000000" d="M401.121,87.336l-150.22,273.018c-9.416,2.166-17.788,8.457-22.212,17.891c-7.644,16.296-0.632,35.684,15.659,43.326
	c16.291,7.644,35.684,0.632,43.322-15.659c4.424-9.431,3.915-19.892-0.441-28.519L401.121,87.336z"/>
<path fill="#7345a1" d="M387.696,180.945l-7.999,20.372c51.112,30.426,89.13,79.183,105.734,135.881L414.4,357.493
	c-10.294-34.925-32.192-65.206-62.2-86.146l-8.221,20.928c28.928,21.814,49.026,54.36,54.065,92.476L511.5,352.333
	C496.71,278.532,450.571,217.116,387.696,180.945z"/>
<path fill="#9876BB" d="M278.637,264.905l58.506-106.337c-25.555-8.195-52.806-12.695-81.143-12.695
	c-126.141,0-231.608,87.246-255.5,206.46l113.454,32.418c9.272-70.14,69.416-121.61,142.046-121.61
	C263.711,263.141,271.257,263.775,278.637,264.905z"/>
</svg>